<svg viewBox="0 0 64 64" xmlns="http://www.w3.org/2000/svg">
  <rect width="64" height="64" fill="#1A5F7A" rx="14"/>
  <!-- G letterform in white -->
  <path d="M32 12 C20 12 12 20 12 32 C12 44 20 52 32 52 C44 52 52 44 52 36 L36 36 L36 44 C34.7 44.6 33.4 44.9 32 44.9 C23.2 44.9 19.1 38.9 19.1 32 C19.1 25.1 23.2 19.1 32 19.1 C36.1 19.1 39.6 20.6 42.1 23.2 L47.2 18.1 C43.4 14.3 38 12 32 12Z"
    fill="white" opacity="0.95"/>
  <!-- Orange accent ring -->
  <circle cx="48" cy="16" r="8" fill="#F49430" opacity="0.9"/>
</svg>
